<svg xmlns="http://www.w3.org/2000/svg" xmlns:xlink="http://www.w3.org/1999/xlink" width="184" height="145" viewBox="0 0 184 145"><defs><path id="szmna" d="M864.78 977.9a5.63 5.63 0 0 0-3.9 3.4l-1.85 4.53a5.63 5.63 0 0 0 .35 5.16l3.68 5.38a3.77 3.77 0 0 1-.43 4.6l-5.65 5.65a3.77 3.77 0 0 1-4.6.43l-5.32-3.64a5.58 5.58 0 0 0-5.14-.33l-4.65 1.94a5.66 5.66 0 0 0-3.4 3.9l-1.17 6.27a3.77 3.77 0 0 1-3.55 2.95h-8a3.77 3.77 0 0 1-3.56-2.95l-1.16-6.23a5.63 5.63 0 0 0-3.4-3.9l-4.72-1.93a5.61 5.61 0 0 0-5.16.34l-5.23 3.58a3.77 3.77 0 0 1-4.6-.43l-5.66-5.65a3.77 3.77 0 0 1-.42-4.6l3.59-5.25a5.62 5.62 0 0 0 .34-5.15l-1.94-4.7a5.63 5.63 0 0 0-3.89-3.4l-6.24-1.18a3.77 3.77 0 0 1-2.95-3.55v-8a3.77 3.77 0 0 1 2.95-3.56l6.24-1.17a5.63 5.63 0 0 0 3.9-3.4l1.93-4.7c.74-1.47.59-3.8-.34-5.15l-3.6-5.25a3.77 3.77 0 0 1 .43-4.6l5.66-5.66a3.77 3.77 0 0 1 4.6-.43l5.23 3.59a5.6 5.6 0 0 0 5.16.34l4.72-1.95a5.63 5.63 0 0 0 3.4-3.89l1.16-6.22a3.77 3.77 0 0 1 3.56-2.95h8a3.77 3.77 0 0 1 3.55 2.95l1.17 6.26a5.66 5.66 0 0 0 3.4 3.9l4.65 1.94c1.47.75 3.78.6 5.14-.33l5.32-3.64a3.77 3.77 0 0 1 4.6.43l5.65 5.66a3.77 3.77 0 0 1 .43 4.6l-3.68 5.38a5.63 5.63 0 0 0-.35 5.16l1.86 4.53a5.63 5.63 0 0 0 3.89 3.4l6.42 1.2c1.62.3 2.95 1.9 2.95 3.56v8a3.77 3.77 0 0 1-2.95 3.55zM838 969.13c0-7.17-5.79-12.97-12.94-12.97-7.14 0-12.94 5.8-12.94 12.97 0 7.16 5.8 12.97 12.94 12.97 7.15 0 12.94-5.8 12.94-12.97zm85.76 50.26a6.63 6.63 0 0 0 .68 5.3l3.46 5.06a3.77 3.77 0 0 1-.42 4.6l-5.14 5.13a3.77 3.77 0 0 1-4.6.43l-5.1-3.5a6.63 6.63 0 0 0-5.3-.68l-4.18 1.07a6.36 6.36 0 0 0-4.26 3.15l-1.86 3.86a3.77 3.77 0 0 1-4.2 1.93l-7.01-1.88a3.77 3.77 0 0 1-2.67-3.76l.34-4.42a6.08 6.08 0 0 0-2.18-4.78s-.3-.23-1.54-1.46a19.7 19.7 0 0 1-1.67-1.8 6.02 6.02 0 0 0-4.77-2.2l-4.49.35a3.77 3.77 0 0 1-3.76-2.67l-1.89-7.02a3.77 3.77 0 0 1 1.93-4.2l4.17-2a6.4 6.4 0 0 0 3.16-4.25l.76-3.04a6.8 6.8 0 0 0-.74-5.31l-2.84-4.15a3.77 3.77 0 0 1 .43-4.6l5.14-5.13a3.76 3.76 0 0 1 4.6-.43l3.51 2.4a6.12 6.12 0 0 0 5.24.52l3.94-1.27a6.93 6.93 0 0 0 4.23-3.33l2.16-4.5a3.77 3.77 0 0 1 4.2-1.94l7.02 1.88c1.6.43 2.8 2.13 2.67 3.77l-.31 4.04a5.73 5.73 0 0 0 2.25 4.68s1.2.8 2.82 2.43l1 1a6.07 6.07 0 0 0 4.7 1.94l5.86-.45a3.77 3.77 0 0 1 3.76 2.67l1.88 7.02a3.77 3.77 0 0 1-1.92 4.2l-4.74 2.26a6.26 6.26 0 0 0-3.12 4.27zm-19.18-14.75a8.38 8.38 0 1 0-11.86 11.83 8.38 8.38 0 0 0 11.86-11.83z"/><path id="szmnc" d="M907.62 1019.52a12.65 12.65 0 0 1-17.9-.02 12.65 12.65 0 0 1-.01-17.9 12.65 12.65 0 0 1 17.9.02 12.66 12.66 0 0 1 .01 17.9zm-82.56-31.9a18.46 18.46 0 0 1-18.43-18.48c0-10.2 8.25-18.48 18.43-18.48a18.46 18.46 0 0 1 18.44 18.48c0 10.2-8.25 18.48-18.44 18.48z"/><path id="szmnd" d="M790 934l70 70s-37 37-71 0 1-70 1-70zm81 51l55 53s-25.96 24.96-52 1c-25-23-3-54-3-54z"/><clipPath id="szmnb"><use xlink:href="#szmna"/></clipPath></defs><g><g transform="translate(-753 -919)"><g><use fill="#487fbc" xlink:href="#szmna"/></g><g clip-path="url(#szmnb)"><use fill="#daeaf2" xlink:href="#szmnc"/></g><g clip-path="url(#szmnb)" opacity=".2"><use fill="#00234a" xlink:href="#szmnd"/></g></g></g></svg>