<svg xmlns="http://www.w3.org/2000/svg" xmlns:xlink="http://www.w3.org/1999/xlink" width="120" height="40" viewBox="0 0 120 40"><defs><path id="bidja" d="M228.76 93.99c-10.04.33-16.78-5.6-16.78-15.95 0-12.11 8.33-20.47 20.7-20.33 6.02.07 10.2 2.05 12.04 3.3l-3.35 7.64c-1.5-.73-4.32-1.24-6.7-1.24-6.11 0-9.1 3.97-9.27 9.09-.17 5.3 3.1 8.8 7.94 9.26 4.8.46 8.21-.64 10.3-1.56l1.88-13.2h10.24l-1.82 12.83c-.17 1.14.55 2.07 1.61 2.07 1.02 0 2-.93 2.16-2.07l1.82-12.84h10.25l-1.99 14.27c-.24 1.74.36 2.85 4.1 1.33-.14-.8-.2-1.64-.2-2.51 0-7.75 4.95-13.64 11.13-13.64 2.46 0 4.11 1.06 5.34 2.76l1.52-11.06h10.25l-3.26 23.3c-.2 1.6.51 2.83 4.5.74-.1-.68-.14-1.38-.14-2.1 0-7.58 4.95-13.64 11.14-13.64 2.45 0 4.1 1.06 5.33 2.76l.3-2.2h10.25L326 85.42c-.2 1.66.8 1.95 2.38 1.57l-.37 4.39c-2.18 1.72-4.33 2.6-6.45 2.6-3.14 0-5.13-1.44-5.8-3.52-1.78 2.12-4.03 3.52-7.24 3.52a6.62 6.62 0 0 1-5.65-3.06c-1.8 1.03-5.8 3.12-10.66 3.06-3.13-.04-5.12-1.44-5.8-3.52-1.78 2.08-3.94 3.52-7.24 3.52a6.6 6.6 0 0 1-5.58-2.96c-5.07 2.35-8.19 2.96-10.26 2.96-3.21 0-5.12-1.32-5.84-3.22-2.33 2.16-4.78 3.22-7.58 3.22-3.18 0-5.47-1.66-6.3-4.21-4.8 2.54-9.18 4.02-14.86 4.2zm59.02-12.4c0-1.79-.98-3.19-2.5-3.19-2 0-3.56 2.04-3.56 4.37 0 1.77.93 3.17 2.5 3.17 1.95 0 3.56-2.03 3.56-4.36zm29.34 0c0-1.79-.97-3.19-2.5-3.19-1.99 0-3.55 2.04-3.55 4.37 0 1.77.93 3.17 2.5 3.17 1.94 0 3.55-2.03 3.55-4.36z"/></defs><g><g transform="translate(-210 -56)"><use fill="#fff" xlink:href="#bidja"/></g></g></svg>