<svg xmlns="http://www.w3.org/2000/svg" xmlns:xlink="http://www.w3.org/1999/xlink" width="119" height="149" viewBox="0 0 119 149"><defs><path id="qnv6b" d="M1138.1 1024s1.61 1.22 1.7 3.57c.08 2.36-.56 17.58-.56 17.58s14.43-17 18.6-22.28a13.13 13.13 0 0 0-2.13-17.86c-6.18-5.3-17.6 18.99-17.6 18.99z"/><path id="qnv6c" d="M1108.96 1007.17s-1.86-.78-3.94.32c-2.08 1.11-14.94 9.28-14.94 9.28s7.5-21 10-27.26a13.13 13.13 0 0 1 16.52-7.08c7.68 2.7-7.64 24.74-7.64 24.74z"/><path id="qnv6d" d="M1116.08 1012.15l13.86 8a3.5 3.5 0 0 1-3.5 6.06l-13.86-8a3.5 3.5 0 1 1 3.5-6.06z"/><path id="qnv6e" d="M1119.8 1024.7a8 8 0 0 1 2.93 10.92c-2.2 3.83-17.07 13.52-17.07 13.52s1-17.7 3.22-21.52a8 8 0 0 1 10.93-2.93z"/><path id="qnv6a" d="M1181.5 920.57c-.6-1.82-1.01-3.44-.92-3.6.1-.17.14-.3.08-.3-.05.01-.5-.03-.55-.18-.05-.14-.18-.12-.28.05-.1.18-1.7.67-3.57 1.09 0 0-35.11 7.96-50.81 36.71-17.47 31.99-16.15 53.78-16.15 53.78a6.5 6.5 0 0 0 2.94 5.2l5.78 3.34a13293.5 13293.5 0 0 1 6.76 3.9l6.14 3.55a6.7 6.7 0 0 0 6.01.01s18.56-10.36 37.53-41.48c17.08-28.03 7.04-62.07 7.04-62.07z"/><path id="qnv6g" d="M1181.44 915.94l25.12 14.5-61 105.65-25.12-14.5z"/><path id="qnv6h" d="M1182.95 913.32l15.6 8.98-13 22.52s-6.8-6.05-14.61-10.68z"/><path id="qnv6i" d="M1170.94 934.14l-.7-.42a98.51 98.51 0 0 0-16.73-7.4l12.98-22.48 16.46 9.48z"/><path id="qnv6j" d="M1160.99 950.36a16.46 16.46 0 1 1-16.46 28.52 16.46 16.46 0 0 1 16.46-28.52z"/><path id="qnv6k" d="M1159 953.8a12.5 12.5 0 1 1-12.5 21.65 12.5 12.5 0 0 1 12.5-21.66z"/><clipPath id="qnv6f"><use xlink:href="#qnv6a"/></clipPath></defs><g><g transform="translate(-1089 -902)"><g><use fill="#3a6da5" xlink:href="#qnv6b"/></g><g><use fill="#487fbc" xlink:href="#qnv6c"/></g><g><use fill="#d97475" xlink:href="#qnv6d"/></g><g><use fill="#f1c40f" xlink:href="#qnv6e"/></g><g><use fill="#daeaf2" xlink:href="#qnv6a"/></g><g clip-path="url(#qnv6f)"><use fill="#bedae8" xlink:href="#qnv6g"/></g><g clip-path="url(#qnv6f)"><use fill="#d84848" xlink:href="#qnv6h"/></g><g clip-path="url(#qnv6f)"><use fill="#f57b71" xlink:href="#qnv6i"/></g><g><use fill="#fff" xlink:href="#qnv6j"/></g><g><use fill="#5ad2eb" xlink:href="#qnv6k"/></g></g></g></svg>